/* XPM */
static char * backlight_on_xpm[] = {
"58 58 7 1",
"       c None",
".      c #ff0000 s Back5",
"+      c #ff9999 s Back0",
"@      c #DEDEDE",
"#      c #000000",
"$      c #aa7777 s Back1",
"%      c #3E463E",

"  ......................................................  ",
" .++++++++++++++++++++++++++++++++++++++++++++++++++++++. ",
".++++++++++++++++++++++++++++++++++++++++++++++++++++++++@",
".++++++++++++++++++++++++++++++++++++++++++++++++++++++++@",
".++++++++++++++++++++++++++++++++++++++++++++++++++++++++@",
".++++++$$$$$$++++++$$$$$$+++++++++$$$$$$++++++$$$$$$+++++@",
".++++$++$$$$++$++$++$$$$++$+++++$++$$$$++$++$++$$$$++$+++@",
".++++$$++++++$$++$$++++++$$+++++$$++++++$$++$$++++++$$+++@",
".++++$$++++++$$++$$++++++$$+++++$$++++++$$++$$++++++$$+++@",
".++++$$++++++$$++$$++++++$$+++++$$++++++$$++$$++++++$$+++@",
".++++$$++++++$$++$$++++++$$+..++$$++++++$$++$$++++++$$+++@",
".++++$$++++++$$++$$++++++$$+..$+$$++++++$$++$$++++++$$+++@",
".++++$$++++++$$++$$++++++$$++$$+$$++++++$$++$$++++++$$+++@",
".++++$$++++++$$++$$++++++$$+++++$$++++++$$++$$++++++$$+++@",
".++++$++$$$$++$++$++$$$$++$+++++$++$$$$++$++$++$$$$++$+++@",
".++++++$$$$$$++++++$$$$$$+++++++++$$$$$$++++++$$$$$$+++++@",
".++++$++++++++$++$++++++++$+++++$++++++++$++$++++++++$+++@",
".++++$$++++++$$++$$++++++$$+++++$$++++++$$++$$++++++$$+++@",
".++++$$++++++$$++$$++++++$$+++++$$++++++$$++$$++++++$$+++@",
".++++$$++++++$$++$$++++++$$+..++$$++++++$$++$$++++++$$+++@",
".++++$$++++++$$++$$++++++$$+..$+$$++++++$$++$$++++++$$+++@",
".++++$$++++++$$++$$++++++$$++$$+$$++++++$$++$$++++++$$+++@",
".++++$$++++++$$++$$++++++$$+++++$$++++++$$++$$++++++$$+++@",
".++++$++$$$$++$++$++$$$$++$+++++$++$$$$++$++$++$$$$++$+++@",
".++++++$$$$$$++++++$$$$$$+++++++++$$$$$$++++++$$$$$$+++++@",
".++++++++++++++++++++++++++++++++++++++++++++++++++++++++@",
".+++...............................++$$$+$$$+$$$+.$++.$++@",
".+++.$$$$$$$$$$$$$$$$$$$$$$$$$$$$$$.+$$$+$$$+$$$++++.$+++@",
".+++.$$$$$$$$$$$$$$$$$$$$$$$$$$$$$$.+$$$+$$$+$$$+++.$++++@",
".+++.$$$$$$$$$$$$$$$$$$$$$$$$$$$$$$.+$$$+$$$+$$$++.$+++++@",
".+++...............................++$$$+$$$+$$$+.$++.$++@",
".++++++++++++++++++++++++++++++++++++++++++++++++++++++++@",
".+++++++++++++++++++++++++++++++++++$$$$+$$$$+$$$$+$$$$++@",
".++++$$$$$$$$$$$$$$$$$$$$$$$$$$$$$$+$$$$+$$$$+$$$$+$$$$++@",
".++++$$$$$$$$$$$$$$$$$$$$$$$$$$$$$$+$$$$+$$$$+$$$$+$$$$++@",
".++++$$$$$$$$$$$$$$$$$$$$$$$$$$$$$$+$$$$+$$$$+$$$$+$$$$++@",
".+++++++++++++++++++++++++++++++++++$$$$+$$$$+$$$$+$$$$++@",
".++++++++++++++++++++++++++++++++++++++++++++++++++++++++@",
".+++++++++++++++++++++++++++++++++++++$$$$$$$$$$$$$$$$$++@",
".++++++$$$+++++++$$$$$$$$+++$$$$$$$$++$+$$$$$++$$+$$$+$++@",
".++++$$$++$++$++$$++++++$++$$++++++$++$+$$$$+$$+$+$$$+$++@",
".++++++$++$$$+++$$++++++$++$$++++++$++$+$$$$+$$+$+$+$+$++@",
".++++$$$++$+++++$$++++++$++$$++++++$++$+$$$$+$$+$++$++$++@",
".++++++$$$+++++++$$$$$$$$+++$$$$$$$$++$++++$$++$$+$$$+$++@",
".+++++++++++++++++++++++++++++++++++++$$$$$$$$$$$$$$$$$++@",
".++++++++++++++++++++++++++++++++++++++++++++++++++++++++@",
".+++++$$$+++$$$+++$$$+++$$$+++$$$++++$+$+++$+$+++$+$+++++@",
".++++$+++$+$+++$+$+++$+$+++$+$+++$++$+$+$+$+$+$+$+$+$++++@",
".++++$+++$+$+++$+$+++$+$+++$+$+++$++$+$+$+$+$+$+$+$+$++++@",
".++++$+++$+$+++$+$+++$+$+++$+$+++$++$+$+$+$+$+$+$+$+$++++@",
".+++++$$$+++$$$+++$$$+++$$$+++$$$++++$+$+++$+$+++$+$+++++@",
".++++$+++$+$+++$+$+++$+$+++$+$+++$++$+$+$+$+$+$+$+$+$++++@",
".++++$+++$+$+++$+$+++$+$+++$+$+++$++$+$+$+$+$+$+$+$+$++++@",
".++++$+++$+$+++$+$+++$+$+++$+$+++$++$+$+$+$+$+$+$+$+$++++@",
".+++++$$$+++$$$+++$$$+++$$$+++$$$++++$+$+++$+$+++$+$+++++@",
".++++++++++++++++++++++++++++++++++++++++++++++++++++++++@",
" .++++++++++++++++++++++++++++++++++++++++++++++++++++++@ ",
"  @@@@@@@@@@@@@@@@@@@@@@@@@@@@@@@@@@@@@@@@@@@@@@@@@@@@@@  "};
