/* XPM */
static char * backlight_off_xpm[] = {
"58 58 8 1",
" 	c None",
".	c #FFFFFF",
"+	c #FF0000 s Back2",
"@	c #0A0A0A",
"#	c #484C46",
"$	c #DEDEDE",
"%	c #772222 s Back4",
"&	c #222222 s Back3",
"..++++++++++++++++++++++++++++++++++++++++++++++++++++++..",
".+@@@@@@@@@@@@@@@@@@@@@@@@@@@@@@@@@@@@@@@@@@@@@@@@@@@@@@+.",
"+@@#####################################################+$",
"+@##%%%%%%%%%%%%%%%%%%%%%%%%%%%%%%%%%%%%%%%%%%%%%%%%%%%%+$",
"+@#%%&&&&&&&&&&&&&&&&&&&&&&&&&&&&&&&&&&&&&&&&&&&&&&&&&&&+$",
"+@#%&&&%%%%%%&&&&&&%%%%%%&&&&&&&&&%%%%%%&&&&&&%%%%%%&&&&+$",
"+@#%&%&&%%%%&&%&&%&&%%%%&&%&&&&&%&&%%%%&&%&&%&&%%%%&&%&&+$",
"+@#%&%%&&&&&&%%&&%%&&&&&&%%&&&&&%%&&&&&&%%&&%%&&&&&&%%&&+$",
"+@#%&%%&&&&&&%%&&%%&&&&&&%%&&&&&%%&&&&&&%%&&%%&&&&&&%%&&+$",
"+@#%&%%&&&&&&%%&&%%&&&&&&%%&&&&&%%&&&&&&%%&&%%&&&&&&%%&&+$",
"+@#%&%%&&&&&&%%&&%%&&&&&&%%&++&&%%&&&&&&%%&&%%&&&&&&%%&&+$",
"+@#%&%%&&&&&&%%&&%%&&&&&&%%&++%&%%&&&&&&%%&&%%&&&&&&%%&&+$",
"+@#%&%%&&&&&&%%&&%%&&&&&&%%&&%%&%%&&&&&&%%&&%%&&&&&&%%&&+$",
"+@#%&%%&&&&&&%%&&%%&&&&&&%%&&&&&%%&&&&&&%%&&%%&&&&&&%%&&+$",
"+@#%&%&&%%%%&&%&&%&&%%%%&&%&&&&&%&&%%%%&&%&&%&&%%%%&&%&&+$",
"+@#%&&&%%%%%%&&&&&&%%%%%%&&&&&&&&&%%%%%%&&&&&&%%%%%%&&&&+$",
"+@#%&%&&&&&&&&%&&%&&&&&&&&%&&&&&%&&&&&&&&%&&%&&&&&&&&%&&+$",
"+@#%&%%&&&&&&%%&&%%&&&&&&%%&&&&&%%&&&&&&%%&&%%&&&&&&%%&&+$",
"+@#%&%%&&&&&&%%&&%%&&&&&&%%&&&&&%%&&&&&&%%&&%%&&&&&&%%&&+$",
"+@#%&%%&&&&&&%%&&%%&&&&&&%%&++&&%%&&&&&&%%&&%%&&&&&&%%&&+$",
"+@#%&%%&&&&&&%%&&%%&&&&&&%%&++%&%%&&&&&&%%&&%%&&&&&&%%&&+$",
"+@#%&%%&&&&&&%%&&%%&&&&&&%%&&%%&%%&&&&&&%%&&%%&&&&&&%%&&+$",
"+@#%&%%&&&&&&%%&&%%&&&&&&%%&&&&&%%&&&&&&%%&&%%&&&&&&%%&&+$",
"+@#%&%&&%%%%&&%&&%&&%%%%&&%&&&&&%&&%%%%&&%&&%&&%%%%&&%&&+$",
"+@#%&&&%%%%%%&&&&&&%%%%%%&&&&&&&&&%%%%%%&&&&&&%%%%%%&&&&+$",
"+@#%&&&&&&&&&&&&&&&&&&&&&&&&&&&&&&&&&&&&&&&&&&&&&&&&&&&&+$",
"+@#%+++++++++++++++++++++++++++++++&&%%%&%%%&%%%&+%&&+%&+$",
"+@#%+%%%%%%%%%%%%%%%%%%%%%%%%%%%%%%+&%%%&%%%&%%%&&&&+%&&+$",
"+@#%+%%%%%%%%%%%%%%%%%%%%%%%%%%%%%%+&%%%&%%%&%%%&&&+%&&&+$",
"+@#%+%%%%%%%%%%%%%%%%%%%%%%%%%%%%%%+&%%%&%%%&%%%&&+%&&&&+$",
"+@#%+++++++++++++++++++++++++++++++&&%%%&%%%&%%%&+%&&+%&+$",
"+@#%&&&&&&&&&&&&&&&&&&&&&&&&&&&&&&&&&&&&&&&&&&&&&&%&&&&%+$",
"+@#%&&&&&&&&&&&&&&&&&&&&&&&&&&&&&&&&%%%%&%%%%&%%%%&%%%%&+$",
"+@#%&%%%%%%%%%%%%%%%%%%%%%%%%%%%%%%&%%%%&%%%%&%%%%&%%%%&+$",
"+@#%&%%%%%%%%%%%%%%%%%%%%%%%%%%%%%%&%%%%&%%%%&%%%%&%%%%&+$",
"+@#%&%%%%%%%%%%%%%%%%%%%%%%%%%%%%%%&%%%%&%%%%&%%%%&%%%%&+$",
"+@#%&&&&&&&&&&&&&&&&&&&&&&&&&&&&&&&&%%%%&%%%%&%%%%&%%%%&+$",
"+@#%&&&&&&&&&&&&&&&&&&&&&&&&&&&&&&&&&&&&&&&&&&&&&&&%&&&%+$",
"+@#%&&&&&&&&&&&&&&&&&&&&&&&&&&&&&&&&&&%%%%%%%%%%%%%%%%%&+$",
"+@#%&&&%%%&&&&&&&%%%%%%%%&&&%%%%%%%%&&%&%%%%%&&%%&%%%&%&+$",
"+@#%&%%%&&%&&%&&%%&&&&&&%&&%%&&&&&&%&&%&%%%%&%%&%&%%%&%&+$",
"+@#%&&&%&&%%%&&&%%&&&&&&%&&%%&&&&&&%&&%&%%%%&%%&%&%&%&%&+$",
"+@#%&%%%&&%&&&&&%%&&&&&&%&&%%&&&&&&%&&%&%%%%&%%&%&&%&&%&+$",
"+@#%&&&%%%&&&&&&&%%%%%%%%&&&%%%%%%%%&&%&&&&%%&&%%&%%%&%&+$",
"+@#%&&&&&&&&&&&&&&&&&&&&&&&&&&&&&&&&&&%%%%%%%%%%%%%%%%%&+$",
"+@#%&&&&&&&&&&&&&&&&&&&&&&&&&&&&&&&&&&&&&&&&&&&&&&&&&&&&+$",
"+@#%&&%%%&&&%%%&&&%%%&&&%%%&&&%%%&&&&%&%&&&%&%&&&%%%&&&&+$",
"+@#%&%&&&%&%&&&%&%&&&%&%&&&%&%&&&%&&%&%&%&%&%&%&%&%&%&&&+$",
"+@#%&%&&&%&%&&&%&%&&&%&%&&&%&%&&&%&&%&%&%&%&%&%&%&%&%&&&+$",
"+@#%&%&&&%&%&&&%&%&&&%&%&&&%&%&&&%&&%&%&%&%&%&%&%&%&%&&&+$",
"+@#%&&%%%&&&%%%&&&%%%&&&%%%&&&%%%&&&&%&%&&&%&%&&&%&%&&&&+$",
"+@#%&%&&&%&%&&&%&%&&&%&%&&&%&%&&&%&&%&%&%&%&%&%&%&%&%&&&+$",
"+@#%&%&&&%&%&&&%&%&&&%&%&&&%&%&&&%&&%&%&%&%&%&%&%&%&%&&&+$",
"+@#%&%&&&%&%&&&%&%&&&%&%&&&%&%&&&%&&%&%&%&%&%&%&%&%&%&&&+$",
"+@#%&&%%%&&&%%%&&&%%%&&&%%%&&&%%%&&&&%&%&&&%&%&&&%&%&&&&+$",
"+@#%&&&&&&&&&&&&&&&&&&&&&&&&&&&&&&&&&&&&&&&&&&&&&&&&&&&++$",
".+++++++++++++++++++++++++++++++++++++++++++++++++++++++$.",
"..$$$$$$$$$$$$$$$$$$$$$$$$$$$$$$$$$$$$$$$$$$$$$$$$$$$$$$.."};
