/* XPM */
static char * parts_xpm[] = {
"104 181 10 1",
" 	c None",
".	c #222222 s Back3",
"+	c #ff0000 s Back2",
"@	c #772222 s Back4",
"#	c #ff9999 s Back0",
"$	c #aa7777 s Back1",
"%	c #FFFFFF",
"&	c #3E463E",
"*	c #E21616",
"o	c #ff0000 s Back5",
"..++++++....@@@@@@....++++++....++++++....@@@@@@....++++++....++++++....++++++....++++++....++++++..++++",
"+..++++..+@..@@@@..+@..++++..+@..++++..++..@@@@..++..++++..@+..++++..@@..++++..++..++++..++..++++..+..##",
"++......++@@......++@@......++@@......++++......++++......@@++......@@@@......++++......++++......++++++",
"++......++@@......++@@......++@@......++++......++++......@@++......@@@@......++++......++++......++..##",
"++......++@@......++@@......++@@......++++......++++......@@++......@@@@......++++......++++......++++++",
"++......++@@......++@@......++@@......++++......++++......@@++......@@@@......++++......++++......++..##",
"++......++@@......++@@......++@@......++++......++++......@@++......@@@@......++++......++++......++++++",
"++......++@@......++@@......++@@......++++......++++......@@++......@@@@......++++......++++......++..##",
"++......++@@......++@@......++@@......++++......++++......@@++......@@@@......++++......++++......++++++",
"+..@@@@..+@..@@@@..+@..++++..+@..++++..++..++++..++..++++..@+..++++..@@..@@@@..++..++++..++..++++..+..##",
"..@@@@@@....@@@@@@....++++++....++++++....++++++....++++++....++++++....@@@@@@....++++++....++++++..++++",
"+........+@........++........@@........+@........+@........++........+@........++........+@........+..##",
"++......++@@......++++......@@@@......++@@......++@@......++++......++@@......++++......++@@......++++++",
"++......++@@......++++......@@@@......++@@......++@@......++++......++@@......++++......++@@......++..##",
"++......++@@......++++......@@@@......++@@......++@@......++++......++@@......++++......++@@......++++++",
"++......++@@......++++......@@@@......++@@......++@@......++++......++@@......++++......++@@......++..##",
"++......++@@......++++......@@@@......++@@......++@@......++++......++@@......++++......++@@......++++++",
"++......++@@......++++......@@@@......++@@......++@@......++++......++@@......++++......++@@......++..##",
"+..++++..+@..@@@@..++..++++..@@..++++..+@..@@@@..+@..++++..++..++++..+@..@@@@..++..++++..+@..++++..+++++",
"..++++++....@@@@@@....++++++....++++++....@@@@@@....++++++....++++++....@@@@@@....++++++....++++++....##",
"##oooooo####$$$$$$####oooooo####oooooo####$$$$$$####oooooo####oooooo####oooooo####oooooo####oooooo##oooo",
"o##oooo##o$##$$$$##o$##oooo##o$##oooo##oo##$$$$##oo##oooo##$o##oooo##$$##oooo##oo##oooo##oo##oooo##o%%%%",
"oo######oo$$######oo$$######oo$$######oooo######oooo######$$oo######$$$$######oooo######oooo######oo%%%%",
"oo######oo$$######oo$$######oo$$######oooo######oooo######$$oo######$$$$######oooo######oooo######oo%%%%",
"oo######oo$$######oo$$######oo$$######oooo######oooo######$$oo######$$$$######oooo######oooo######oo%%%%",
"oo######oo$$######oo$$######oo$$######oooo######oooo######$$oo######$$$$######oooo######oooo######oo%%%%",
"oo######oo$$######oo$$######oo$$######oooo######oooo######$$oo######$$$$######oooo######oooo######oo%%%%",
"oo######oo$$######oo$$######oo$$######oooo######oooo######$$oo######$$$$######oooo######oooo######oo%%%%",
"oo######oo$$######oo$$######oo$$######oooo######oooo######$$oo######$$$$######oooo######oooo######oo%%%%",
"o##$$$$##o$##$$$$##o$##oooo##o$##oooo##oo##oooo##oo##oooo##$o##oooo##$$##$$$$##oo##oooo##oo##oooo##o%%%%",
"##$$$$$$####$$$$$$####oooooo####oooooo####oooooo####oooooo####oooooo####$$$$$$####oooooo####oooooo##%%%%",
"o########o$########oo########$$########o$########o$########oo########o$########oo########o$########o.ooo",
"oo######oo$$######oooo######$$$$######oo$$######oo$$######oooo######oo$$######oooo######oo$$######ooo...",
"oo######oo$$######oooo######$$$$######oo$$######oo$$######oooo######oo$$######oooo######oo$$######ooo...",
"oo######oo$$######oooo######$$$$######oo$$######oo$$######oooo######oo$$######oooo######oo$$######ooo...",
"oo######oo$$######oooo######$$$$######oo$$######oo$$######oooo######oo$$######oooo######oo$$######oo&@@@",
"oo######oo$$######oooo######$$$$######oo$$######oo$$######oooo######oo$$######oooo######oo$$######ooo...",
"oo######oo$$######oooo######$$$$######oo$$######oo$$######oooo######oo$$######oooo######oo$$######ooo...",
"o##oooo##o$##$$$$##oo##oooo##$$##oooo##o$##$$$$##o$##oooo##oo##oooo##o$##$$$$##oo##oooo##o$##oooo##oo...",
"##oooooo####$$$$$$####oooooo####oooooo####$$$$$$####oooooo####oooooo####$$$$$$####oooooo####oooooo##.ooo",
".+++..@@@..+++..+++..@@@..+++..+++..+++..+++..+++.#ooo##$$$##ooo##ooo##$$$##ooo##ooo##ooo##ooo##ooo##ooo",
"+...+@...+@...+@...++...++...@+...@@...++...++...+o###o$###o$###o$###oo###oo###$o###$$###oo###oo###oo###",
"+...+@...+@...+@...++...++...@+...@@...++...++...+o###o$###o$###o$###oo###oo###$o###$$###oo###oo###oo###",
"+...+@...+@...+@...++...++...@+...@@...++...++...+o###o$###o$###o$###oo###oo###$o###$$###oo###oo###oo###",
".@@@..@@@..+++..+++..+++..+++..+++..@@@..+++..+++.#$$$##$$$##ooo##ooo##ooo##ooo##ooo##$$$##ooo##ooo##$$$",
"+...+@...++...@@...+@...+@...++...+@...++...+@...+o###o$###oo###$$###o$###o$###oo###o$###oo###o$###oo###",
"+...+@...++...@@...+@...+@...++...+@...++...+@...+o###o$###oo###$$###o$###o$###oo###o$###oo###o$###oo###",
"+...+@...++...@@...+@...+@...++...+@...++...+@...+o###o$###oo###$$###o$###o$###oo###o$###oo###o$###oo###",
".+++..@@@..+++..+++..@@@..+++..+++..@@@..+++..+++.#ooo##$$$##ooo##ooo##$$$##ooo##ooo##$$$##ooo##ooo##ooo",
".@@@..@@@..+++..+++..+.+..@.@..@.@..@.@..@.@..@.@.#$$$##$$$##ooo##ooo##o#o##$#$##$#$##$#$##$#$##$#$#####",
"@.@.@+.+.++.@.++.@.@+.+.++.@.+@.@.@@.@.@@.@.@@.@.@$#$#$o#o#oo#$#oo#$#$o#o#oo#$#o$#$#$$#$#$$#$#$$#$#$####",
"@.@.@+.+.++.@.++.@.@+.+.++.@.+@.@.@@.@.@@.@.@@.@.+$#$#$o#o#oo#$#oo#$#$o#o#oo#$#o$#$#$$#$#$$#$#$$#$#o####",
"@.@.@+.+.++.@.++.@.@+.@.++.@.+@.@.@@.@.@@.@.@@.@.+$#$#$o#o#oo#$#oo#$#$o#$#oo#$#o$#$#$$#$#$$#$#$$#$#o####",
".+.+..@.@..+.+..@.@..@.@..+.+.+++++.+.+..@.@..++++#o#o##$#$##o#o##$#$##$#$##o#o#ooooo#o#o##$#$##oooo####",
"+.+.++.+.+@.@.@+.@.@+.@.++.@.+@.@+@+.@.@@.+.++.@.+o#o#oo#o#o$#$#$o#$#$o#$#oo#$#o$#$o$o#$#$$#o#oo#$#o####",
"+.+.++.+.+@.@.@+.@.@+.@.++.@.+@.+.@+.@.@@.+.++.@.+o#o#oo#o#o$#$#$o#$#$o#$#oo#$#o$#o#$o#$#$$#o#oo#$#o####",
"+.+.++.+.+@.@.@+.@.@+.@.++.@.+@+@.@+.@.@@.+.++.@.+o#o#oo#o#o$#$#$o#$#$o#$#oo#$#o$o$#$o#$#$$#o#oo#$#o####",
".@@@..+++..@@@..+++..@.@..@.@.+++++.+.+..@.+..++++#$$$##ooo##$$$##ooo##$#$##$#$#ooooo#o#o##$#o##oooo####",
"+++++++++++++++++++++++++++++++....+++....+++++++++++++++++..##ooo####ooooooooooooooooo#######.@@@.#$$$#",
"++++++++++++++++++++++++++++++++.+++..+..++.+++++..++.+++.+..ooo##o##oo#ooooo##oo#ooo#o#######@...@$###$",
"++++++++++++++++++++++++++++++++...+..+++.+.++++.++.+.+++.+..##o##ooo#o#oooo#oo#o#ooo#o#######@...@$###$",
"++++++++++++++++++++++++++++++++.+++..+...+.++++.++.+.+.+.+..ooo##o###o#oooo#oo#o#o#o#o#######@...@$###$",
"+++++++++++++++++++++++++++++++....+++....+.++++.++.+..+..+..##ooo####o#oooo#oo#o##o##o#######.+++.#ooo#",
"ooooooooooooooooooooooooooooooo##.+++++++++....++..++.+++.+..#ooooooooo####oo##oo#ooo#o#######@...@$###$",
"oooooooooooooooooooooooooooooooo#++......++++++++++++++++++..oo######oooooooooooooooooo#######@...@$###$",
"oooooooooooooooooooooooooooooooo#++......+...................oo######o########################@...@$###$",
"oooooooooooooooooooooooooooooooo#++......+...................oo######o########################.@@@.#$$$#",
"ooooooooooooooooooooooooooooooo##.++++++++...................#oooooooo##################################",
"..++++++....@@@@@@....++++++....++++++....@@@@@@....++++++....++++++....++++++....++++++....++++++..++++",
"+..++++..+@..@@@@..+@..++++..+@..++++..++..@@@@..++..++++..@+..++++..@@..++++..++..++++..++..++++..+....",
"++......++@@......++@@......++@@......++++......++++......@@++......@@@@......++++......++++......++++++",
"++......++@@......++@@......++@@......++++......++++......@@++......@@@@......++++......++++......++....",
"++......++@@......++@@......++@@......++++......++++......@@++......@@@@......++++......++++......++++++",
"++......++@@......++@@......++@@......++++......++++......@@++......@@@@......++++......++++......++....",
"++......++@@......++@@......++@@......++++......++++......@@++......@@@@......++++......++++......++++++",
"++......++@@......++@@......++@@......++++......++++......@@++......@@@@......++++......++++......++....",
"++......++@@......++@@......++@@......++++......++++......@@++......@@@@......++++......++++......++++++",
"+..@@@@..+@..@@@@..+@..++++..+@..++++..++..++++..++..++++..@+..++++..@@..@@@@..++..++++..++..++++..+....",
"..@@@@@@....@@@@@@....++++++....++++++....++++++....++++++....++++++....@@@@@@....++++++....++++++..++++",
"+........+@........++........@@........+@........+@........++........+@........++........+@........+....",
"++......++@@......++++......@@@@......++@@......++@@......++++......++@@......++++......++@@......++++++",
"++......++@@......++++......@@@@......++@@......++@@......++++......++@@......++++......++@@......++....",
"++......++@@......++++......@@@@......++@@......++@@......++++......++@@......++++......++@@......++++++",
"++......++@@......++++......@@@@......++@@......++@@......++++......++@@......++++......++@@......++....",
"++......++@@......++++......@@@@......++@@......++@@......++++......++@@......++++......++@@......++++++",
"++......++@@......++++......@@@@......++@@......++@@......++++......++@@......++++......++@@......++....",
"+..++++..+@..@@@@..++..++++..@@..++++..+@..@@@@..+@..++++..++..++++..+@..@@@@..++..++++..+@..++++..+++++",
"..++++++....@@@@@@....++++++....++++++....@@@@@@....++++++....++++++....@@@@@@....++++++....++++++....##",
"##oooooo####$$$$$$####oooooo####oooooo####$$$$$$####oooooo####oooooo####oooooo####oooooo####oooooo##oooo",
"o##oooo##o$##$$$$##o$##oooo##o$##oooo##oo##$$$$##oo##oooo##$o##oooo##$$##oooo##oo##oooo##oo##oooo##o....",
"oo######oo$$######oo$$######oo$$######oooo######oooo######$$oo######$$$$######oooo######oooo######oo....",
"oo######oo$$######oo$$######oo$$######oooo######oooo######$$oo######$$$$######oooo######oooo######oo....",
"oo######oo$$######oo$$######oo$$######oooo######oooo######$$oo######$$$$######oooo######oooo######oo....",
"oo######oo$$######oo$$######oo$$######oooo######oooo######$$oo######$$$$######oooo######oooo######oo....",
"oo######oo$$######oo$$######oo$$######oooo######oooo######$$oo######$$$$######oooo######oooo######oo....",
"oo######oo$$######oo$$######oo$$######oooo######oooo######$$oo######$$$$######oooo######oooo######oo....",
"oo######oo$$######oo$$######oo$$######oooo######oooo######$$oo######$$$$######oooo######oooo######oo....",
"o##$$$$##o$##$$$$##o$##oooo##o$##oooo##oo##oooo##oo##oooo##$o##oooo##$$##$$$$##oo##oooo##oo##oooo##o....",
"##$$$$$$####$$$$$$####oooooo####oooooo####oooooo####oooooo####oooooo####$$$$$$####oooooo####oooooo##....",
"o########o$########oo########$$########o$########o$########oo########o$########oo########o$########o....",
"oo######oo$$######oooo######$$$$######oo$$######oo$$######oooo######oo$$######oooo######oo$$######oo....",
"oo######oo$$######oooo######$$$$######oo$$######oo$$######oooo######oo$$######oooo######oo$$######oo....",
"oo######oo$$######oooo######$$$$######oo$$######oo$$######oooo######oo$$######oooo######oo$$######oo....",
"oo######oo$$######oooo######$$$$######oo$$######oo$$######oooo######oo$$######oooo######oo$$######oo....",
"oo######oo$$######oooo######$$$$######oo$$######oo$$######oooo######oo$$######oooo######oo$$######oo....",
"oo######oo$$######oooo######$$$$######oo$$######oo$$######oooo######oo$$######oooo######oo$$######oo....",
"o##oooo##o$##$$$$##oo##oooo##$$##oooo##o$##$$$$##o$##oooo##oo##oooo##o$##$$$$##oo##oooo##o$##oooo##o....",
"##oooooo####$$$$$$####oooooo####oooooo####$$$$$$####oooooo####oooooo####$$$$$$####oooooo####oooooo##....",
".+++..@@@..+++..+++..@@@..+++..+++..+++..+++..+++.#ooo##@@@.#ooo##ooo#.@@@..ooo##ooo##ooo.#ooo##ooo#....",
"+...+@...+@...+@...++...++...@+...@@...++...++...+o###o@###o@###o@###oo###oo###@o###@@###oo###oo###o....",
"+...+@...+@...+@...++...++...@+...@@...++...++...+o###o@###o@###o@###oo###oo###@o###@@###oo###oo###o....",
"+...+@...+@...+@...++...++...@+...@@...++...++...+o###o@###o@###o@###oo###oo###@o###@@###oo###oo###o....",
".@@@..@@@..+++..+++..+++..+++..+++..@@@..+++..+++..@@@.#@@@.#ooo##ooo..ooo..ooo##ooo##@@@.#ooo##ooo.....",
"+...+@...++...@@...+@...+@...++...+@...++...+@...+o###o@###oo###@@###o@###o@###oo###o@###oo###o@###o....",
"+...+@...++...@@...+@...+@...++...+@...++...+@...+o###o@###oo###@@###o@###o@###oo###o@###oo###o@###o....",
"+...+@...++...@@...+@...+@...++...+@...++...+@...+o###o@###oo###@@###o@###o@###oo###o@###oo###o@###o....",
".+++..@@@..+++..+++..@@@..+++..+++..@@@..+++..+++.#ooo##@@@.#ooo.#ooo##@@@..ooo##ooo##@@@.#ooo##ooo#....",
".++++++++.++++++++.++++++++.++++++++.++++++++.....#oooooooo#oooooooo#oooooooo#oooooooo#oooooooo.........",
"++......+++......+++....+++++..++++++++++++++.....oo######ooo######ooo####ooooo##oooooooooooooo.........",
"++......+++.....++++...++++++.+++++++++++++++.....oo######ooo#####oooo###oooooo#ooooooooooooooo.........",
"++......+++....+++++..+++++++++++++++++++++++.....oo######ooo####ooooo##ooooooooooooooooooooooo.........",
".++++++++.++++++++.++++++++.++++++++.++++++++.....#oooooooo#oooooooo#oooooooo#oooooooo#oooooooo.........",
"+.++.+....+.++.+.+++.+.+.++.+.+++.+.+.++++.+++.+..o#oo#o####o#oo#o#ooo#o#o#oo#o#ooo#o#o#oooo#ooo#o##....",
"++++++++++++++++++++++.++++++++++++.++++++++++++..oooooooooooooooooooooo#oooooooooooo#oooooooooooo##....",
"..................................................##################################################....",
"..................................................##################################################....",
"+++.@@+.+++.++@.+@+.+++.+++.+++.+++.+++.@@@.@@@.@@@.@@@.@@@.@@@.@@@.@@@.@@@.@@@.@@@.@@@.@@@.@@@.@@@.@@@.",
"+@+.@@+.@@+.@@+.+@+.+@@.+@@.@@+.+@+.+@+.@@@.@@@.@@@.@@@.@@@.@@@.@@@.@@@.@@@.@@@.@@@.@@@.@@@.@@@.@@@.@@@.",
"+@+.@@+.++@.++@.+++.++@.+++.@@+.+++.+++.@@@.@@@.@@@.@@@.@@@.@@@.@@@.@@@.@@@.@@@.@@@.@@@.@@@.@@@.@@@.@@@.",
"+@+.@@+.+@@.@@+.@@+.@@+.+@+.@+@.+@+.@@+.@@@.@@@.@@@.@@@.@@@.@@@.@@@.@@@.@@@.@@@.@@@.@@@.@@@.@@@.@@@.@@@.",
"+++.@@+.+++.++@.@@+.++@.+++.+@@.+++.+++.@@@.@@@.@@@.@@@.@@@.@@@.@@@.@@@.@@@.@@@.@@@.@@@.@@@.@@@.@@@.@@@.",
"ooo.$$o.ooo.oo$.o$o.ooo.ooo.ooo.ooo.ooo.$$$.$$$.$$$.$$$.$$$.$$$.$$$.$$$.$$$.$$$.$$$.$$$.$$$.$$$.$$$.$$$.",
"o$o.$$o.$$o.$$o.o$o.o$$.o$$.$$o.o$o.o$o.$$$.$$$.$$$.$$$.$$$.$$$.$$$.$$$.$$$.$$$.$$$.$$$.$$$.$$$.$$$.$$$.",
"o$o.$$o.oo$.oo$.ooo.oo$.ooo.$$o.ooo.ooo.$$$.$$$.$$$.$$$.$$$.$$$.$$$.$$$.$$$.$$$.$$$.$$$.$$$.$$$.$$$.$$$.",
"o$o.$$o.o$$.$$o.$$o.$$o.o$o.$o$.o$o.$$o.$$$.$$$.$$$.$$$.$$$.$$$.$$$.$$$.$$$.$$$.$$$.$$$.$$$.$$$.$$$.$$$.",
"ooo.$$o.ooo.oo$.$$o.oo$.ooo.o$$.ooo.ooo.$$$.$$$.$$$.$$$.$$$.$$$.$$$.$$$.$$$.$$$.$$$.$$$.$$$.$$$.$$$.$$$.",
"..++++++....++++++....++++++....++++++....@@@@@@....++++++....++++++....++++++....++++++....++++++..++++",
"+..++++..++..++++..@@..++++..+@..++++..++..@@@@..++..++++..@+..++++..@@..++++..++..++++..++..++++..+....",
"++......++++......@@@@......++@@......++++......++++......@@++......@@@@......++++......++++......++++++",
"++......++++......@@@@......++@@......++++......++++......@@++......@@@@......++++......++++......++....",
"++......++++......@@@@......++@@......++++......++++......@@++......@@@@......++++......++++......++++++",
"++......++++......@@@@......++@@......++++......++++......@@++......@@@@......++++......++++......++....",
"++......++++......@@@@......++@@......++++......++++......@@++......@@@@......++++......++++......++++++",
"++......++++......@@@@......++@@......++++......++++......@@++......@@@@......++++......++++......++....",
"++......++++......@@@@......++@@......++++......++++......@@++......@@@@......++++......++++......++++++",
"+..++++..++..@@@@..@@..++++..+@..++++..++..++++..++..++++..@+..++++..@@..@@@@..++..++++..++..++++..+....",
"..++++++....@@@@@@....++++++....++++++....++++++....++++++....++++++....@@@@@@....++++++....++++++..++++",
"+........++........@+........@@........+@........+@........++........+@........++........+@........+....",
"++......++++......@@++......@@@@......++@@......++@@......++++......++@@......++++......++@@......++++++",
"++......++++......@@++......@@@@......++@@......++@@......++++......++@@......++++......++@@......++....",
"++......++++......@@++......@@@@......++@@......++@@......++++......++@@......++++......++@@......++++++",
"++......++++......@@++......@@@@......++@@......++@@......++++......++@@......++++......++@@......++....",
"++......++++......@@++......@@@@......++@@......++@@......++++......++@@......++++......++@@......++++++",
"++......++++......@@++......@@@@......++@@......++@@......++++......++@@......++++......++@@......++....",
"+..@@@@..++..++++..@+..++++..@@..++++..+@..@@@@..+@..++++..++..++++..+@..@@@@..++..++++..+@..++++..+++++",
"..@@@@@@....++++++....++++++....++++++....@@@@@@....++++++....++++++....@@@@@@....++++++....++++++....##",
"##oooooo####oooooo####oooooo####oooooo####$$$$$$####oooooo####oooooo####oooooo####oooooo####oooooo##oooo",
"o##oooo##oo##oooo##$$##oooo##o$##oooo##oo##$$$$##oo##oooo##$o##oooo##$$##oooo##oo##oooo##oo##oooo##o%%%%",
"oo######oooo######$$$$######oo$$######oooo######oooo######$$oo######$$$$######oooo######oooo######oo%%%%",
"oo######oooo######$$$$######oo$$######oooo######oooo######$$oo######$$$$######oooo######oooo######oo%%%%",
"oo######oooo######$$$$######oo$$######oooo######oooo######$$oo######$$$$######oooo######oooo######oo%%%%",
"oo######oooo######$$$$######oo$$######oooo######oooo######$$oo######$$$$######oooo######oooo######oo%%%%",
"oo######oooo######$$$$######oo$$######oooo######oooo######$$oo######$$$$######oooo######oooo######oo%%%%",
"oo######oooo######$$$$######oo$$######oooo######oooo######$$oo######$$$$######oooo######oooo######oo%%%%",
"oo######oooo######$$$$######oo$$######oooo######oooo######$$oo######$$$$######oooo######oooo######oo%%%%",
"o##oooo##oo##$$$$##$$##oooo##o$##oooo##oo##oooo##oo##oooo##$o##oooo##$$##$$$$##oo##oooo##oo##oooo##o%%%%",
"##oooooo####$$$$$$####oooooo####oooooo####oooooo####oooooo####oooooo####$$$$$$####oooooo####oooooo##%%%%",
"o########oo########$o########$$########o$########o$########oo########o$########oo########o$########o.ooo",
"oo######oooo######$$oo######$$$$######oo$$######oo$$######oooo######oo$$######oooo######oo$$######ooo...",
"oo######oooo######$$oo######$$$$######oo$$######oo$$######oooo######oo$$######oooo######oo$$######ooo...",
"oo######oooo######$$oo######$$$$######oo$$######oo$$######oooo######oo$$######oooo######oo$$######ooo...",
"oo######oooo######$$oo######$$$$######oo$$######oo$$######oooo######oo$$######oooo######oo$$######oo&@@@",
"oo######oooo######$$oo######$$$$######oo$$######oo$$######oooo######oo$$######oooo######oo$$######ooo...",
"oo######oooo######$$oo######$$$$######oo$$######oo$$######oooo######oo$$######oooo######oo$$######ooo...",
"o##$$$$##oo##oooo##$o##oooo##$$##oooo##o$##$$$$##o$##oooo##oo##oooo##o$##$$$$##oo##oooo##o$##oooo##oo...",
"##$$$$$$####oooooo####oooooo####oooooo####$$$$$$####oooooo####oooooo####$$$$$$####oooooo####oooooo##.ooo",
"++++.@@@+.++++.++++.+@@+.++++.++++.++++.++++.++++.oooo.$$$o.oooo.oooo.o$$o.oooo.oooo.oooo.oooo.oooo.....",
"+@@+.@@@+.@@@+.@@@+.+@@+.+@@@.+@@@.@@@+.+@@+.+@@+.o$$o.$$$o.$$$o.$$$o.o$$o.o$$$.o$$$.$$$o.o$$o.o$$o.....",
"+@@+.@@@+.++++.++++.++++.++++.++++.@@+@.++++.++++.o$$o.$$$o.oooo.oooo.oooo.oooo.oooo.$$o$.oooo.oooo.....",
"+@@+.@@@+.+@@@.@@@+.@@@+.@@@+.+@@+.@+@@.+@@+.@@@+.o$$o.$$$o.o$$$.$$$o.$$$o.$$$o.o$$o.$o$$.o$$o.$$$o.....",
"++++.@@@+.++++.++++.@@@+.++++.++++.@+@@.++++.++++.oooo.$$$o.oooo.oooo.$$$o.oooo.oooo.$o$$.oooo.oooo....."};
